<svg id="Capa_1" enable-background="new 0 0 512 512" height="512" viewBox="0 0 512 512" width="512" xmlns="http://www.w3.org/2000/svg" fill="#606266"><g><path d="m402.072 109.055-36.072-27.57v-51.485c0-16.542-13.458-30-30-30h-160c-16.542 0-30 13.458-30 30v51.485l-36.072 27.57c-2.476 1.892-3.928 4.83-3.928 7.945v385c0 2.63 1.07 5.21 2.93 7.069 1.86 1.86 4.44 2.931 7.07 2.931h280c2.63 0 5.21-1.07 7.07-2.931 1.86-1.859 2.93-4.439 2.93-7.069v-164c0-5.51-4.49-10-10-10s-10 4.49-10 10v154h-260v-312h260v68c0 5.51 4.49 10 10 10s10-4.49 10-10v-131c0-3.116-1.452-6.053-3.928-7.945zm-276.072 12.888 20-15.286v53.343h-20zm80 28.057c0-5.514 4.486-10 10-10s10 4.486 10 10-4.486 10-10 10-10-4.486-10-10zm80 0c0-5.514 4.486-10 10-10s10 4.486 10 10-4.486 10-10 10-10-4.486-10-10zm38.28 10c1.11-3.13 1.72-6.494 1.72-10 0-16.542-13.458-30-30-30s-30 13.458-30 30c0 3.506.61 6.87 1.72 10h-23.44c1.11-3.13 1.72-6.494 1.72-10 0-16.542-13.458-30-30-30s-30 13.458-30 30c0 3.506.61 6.87 1.72 10h-21.72v-130c0-5.514 4.486-10 10-10h160c5.514 0 10 4.486 10 10v130zm41.72 0v-53.342l20 15.286v38.056z"/><circle cx="396" cy="293" r="10"/><path d="m216 40c-16.542 0-30 13.458-30 30s13.458 30 30 30 30-13.458 30-30-13.458-30-30-30zm0 40c-5.514 0-10-4.486-10-10s4.486-10 10-10 10 4.486 10 10-4.486 10-10 10z"/><path d="m296 40c-16.542 0-30 13.458-30 30s13.458 30 30 30 30-13.458 30-30-13.458-30-30-30zm0 40c-5.514 0-10-4.486-10-10s4.486-10 10-10 10 4.486 10 10-4.486 10-10 10z"/><path d="m287 346c-5.523 0-10 4.477-10 10v106c0 5.522 4.477 10 10 10s10-4.478 10-10v-106c0-5.523-4.477-10-10-10z"/><circle cx="247" cy="356" r="10"/><path d="m247 391c-5.51 0-10 4.49-10 10v61c0 5.51 4.49 10 10 10s10-4.49 10-10v-61c0-5.51-4.49-10-10-10z"/><path d="m213.171 242.131-51-40c-3.011-2.361-7.105-2.798-10.547-1.124-3.44 1.675-5.624 5.166-5.624 8.993v252c0 5.522 4.477 10 10 10h51c5.523 0 10-4.478 10-10v-212c0-3.072-1.412-5.973-3.829-7.869zm-16.171 209.869h-31v-221.448l31 24.314z"/></g></svg>