<svg id="Capa_1" enable-background="new 0 0 512 512" height="512" viewBox="0 0 512 512" width="512" xmlns="http://www.w3.org/2000/svg" fill="#606266"><g><path d="m311 271c-22.056 0-40 17.944-40 40 0 21.99 18.159 40 40 40 22.056 0 40-17.944 40-40 0-21.923-18.131-40-40-40zm-25 40c0-13.785 11.215-25 25-25 4.167 0 8.095 1.03 11.553 2.84l-33.713 33.712c-1.81-3.457-2.84-7.385-2.84-11.552zm25 25c-4.167 0-8.095-1.03-11.553-2.84l33.713-33.712c1.81 3.458 2.84 7.386 2.84 11.553 0 13.784-11.215 24.999-25 24.999zm77.5-19.107c4.143 0 7.5-3.358 7.5-7.5v-271.893c0-20.678-16.822-37.5-37.5-37.5h-205c-20.678 0-37.5 16.822-37.5 37.5v437c0 20.678 16.822 37.5 37.5 37.5h205c20.678 0 37.5-16.822 37.5-37.5v-130.107c0-4.142-3.357-7.5-7.5-7.5s-7.5 3.358-7.5 7.5v130.107c0 12.407-10.094 22.5-22.5 22.5h-205c-12.406 0-22.5-10.093-22.5-22.5v-437c0-12.407 10.094-22.5 22.5-22.5h205c12.406 0 22.5 10.093 22.5 22.5v271.893c0 4.142 3.357 7.5 7.5 7.5zm-187.5-277.526c-5.703 0-11.217 1.178-16.387 3.502-3.778 1.698-5.465 6.137-3.767 9.915 1.698 3.78 6.141 5.465 9.915 3.767 3.225-1.449 6.669-2.184 10.238-2.184 4.167 0 8.095 1.03 11.553 2.84l-33.712 33.713c-1.81-3.458-2.84-7.386-2.84-11.553 0-4.8.37-10.516-6.384-11.325-6.97-.835-8.616 5.88-8.616 11.325 0 21.992 18.159 40 40 40 22.056 0 40-17.944 40-40 0-21.921-18.131-40-40-40zm0 65c-4.167 0-8.095-1.03-11.553-2.84l33.713-33.712c1.81 3.458 2.84 7.387 2.84 11.553 0 13.784-11.215 24.999-25 24.999zm0 45c-22.056 0-40 17.944-40 40 0 21.993 18.159 40 40 40 22.056 0 40-17.944 40-40 0-21.922-18.13-40-40-40zm-25 40c0-13.785 11.215-25 25-25 4.167 0 8.095 1.03 11.553 2.84l-33.713 33.713c-1.81-3.458-2.84-7.386-2.84-11.553zm25 25c-4.167 0-8.095-1.03-11.553-2.84l33.713-33.712c1.81 3.458 2.84 7.387 2.84 11.553 0 13.784-11.215 24.999-25 24.999zm0 178.266c-22.056 0-40 17.944-40 40s17.966 40 40 40c22.056 0 40-17.944 40-40 0-21.924-18.13-40-40-40zm-25 40c0-13.785 11.215-25 25-25 4.167 0 8.095 1.03 11.553 2.84l-33.713 33.712c-1.81-3.457-2.84-7.386-2.84-11.552zm25 25c-4.167 0-8.095-1.03-11.553-2.84l33.713-33.712c1.81 3.458 2.84 7.386 2.84 11.553 0 13.784-11.215 24.999-25 24.999zm110-418.266c-22.056 0-40 17.944-40 40 0 21.827 18.024 40 40 40 22.056 0 40-17.944 40-40 0-22.072-17.955-40-40-40zm-25 40c0-13.785 11.215-25 25-25 4.167 0 8.095 1.03 11.553 2.84l-33.713 33.713c-1.81-3.458-2.84-7.386-2.84-11.553zm25 25c-4.167 0-8.095-1.03-11.553-2.84l33.713-33.712c1.81 3.458 2.84 7.387 2.84 11.553 0 13.784-11.215 24.999-25 24.999zm0 288.266c-22.056 0-40 17.944-40 40 0 21.999 17.962 40 40 40 22.056 0 40-17.944 40-40 0-21.924-18.131-40-40-40zm-25 40c0-13.785 11.215-25 25-25 4.167 0 8.095 1.03 11.553 2.84l-33.713 33.712c-1.81-3.457-2.84-7.386-2.84-11.552zm25 25c-4.167 0-8.095-1.03-11.553-2.84l33.713-33.712c1.81 3.458 2.84 7.386 2.84 11.553 0 13.784-11.215 24.999-25 24.999zm0-308.266c-22.056 0-40 17.944-40 40 0 21.992 18.159 40 40 40 22.056 0 40-17.944 40-40 0-21.922-18.131-40-40-40zm-25 40c0-13.785 11.215-25 25-25 4.167 0 8.095 1.03 11.553 2.84l-33.713 33.713c-1.81-3.458-2.84-7.386-2.84-11.553zm25 25c-4.167 0-8.095-1.03-11.553-2.84l33.713-33.712c1.81 3.458 2.84 7.387 2.84 11.553 0 13.784-11.215 24.999-25 24.999zm-110 56.633c-22.056 0-40 17.944-40 40 0 21.836 18.023 40 40 40 22.056 0 40-17.944 40-40 0-22.034-17.971-40-40-40zm-25 40c0-13.785 11.215-25 25-25 4.167 0 8.095 1.03 11.553 2.84l-33.713 33.712c-1.81-3.457-2.84-7.385-2.84-11.552zm25 25c-4.167 0-8.095-1.03-11.553-2.84l33.713-33.712c1.81 3.458 2.84 7.386 2.84 11.553 0 13.784-11.215 24.999-25 24.999z"/></g></svg>